<?xml version="1.0" encoding="utf-8"?>
<!-- Generator: Adobe Illustrator 18.0.0, SVG Export Plug-In . SVG Version: 6.00 Build 0)  -->
<!DOCTYPE svg PUBLIC "-//W3C//DTD SVG 1.1//EN" "http://www.w3.org/Graphics/SVG/1.1/DTD/svg11.dtd">
<svg version="1.1" id="Layer_1" xmlns="http://www.w3.org/2000/svg" xmlns:xlink="http://www.w3.org/1999/xlink" x="0px" y="0px"
	 viewBox="0 0 301.2 299.1" enable-background="new 0 0 301.2 299.1" xml:space="preserve">
<g>
	<path d="M122.8,0C55,0,0,55,0,122.8s55,122.8,122.8,122.8s122.8-55,122.8-122.8S190.5,0,122.8,0z M123,205c-45.3,0-82-36.7-82-82
		c0-45.3,36.7-82,82-82c45.3,0,82,36.7,82,82C205,168.3,168.3,205,123,205z"/>
	<path d="M190.5,226l70.4,70.7c3.3,3.3,8.6,3.3,11.8,0l26.1-26.4c3.2-3.3,3.2-8.5-0.1-11.8l-71.5-71.1l-14.5-13.7l-38.3,34
		L190.5,226z"/>
</g>
</svg>
